<?xml version="1.0" encoding="UTF-8"?> <svg xmlns="http://www.w3.org/2000/svg" width="121" height="143" viewBox="0 0 121 143" fill="none"><mask id="mask0_1250_3022" style="mask-type:luminance" maskUnits="userSpaceOnUse" x="9" y="48" width="81" height="95"><path d="M9.65625 48.6719H89.1406V142.536H9.65625V48.6719Z" fill="white"></path></mask><g mask="url(#mask0_1250_3022)"><path d="M24.4687 112.458C24.2499 111.974 24.0468 111.489 23.8332 111.01C24.8645 110.854 25.5103 110.067 25.6093 109.021C25.6301 108.76 25.6562 108.505 25.6874 108.25C25.6926 108.213 25.6926 108.187 25.6978 108.161C25.7134 108.052 25.7291 107.937 25.7499 107.823C25.7916 107.562 25.8489 107.307 25.8957 107.047C25.7916 108.729 25.6405 110.406 25.4218 112.078C25.2968 113.073 26.2916 113.942 27.177 114.062C27.5259 114.109 27.9218 114.047 28.2812 113.896C28.2499 114.927 28.2134 115.953 28.1822 116.984C28.1509 117.989 28.9791 118.844 29.9374 118.969C30.1562 119 30.3593 118.989 30.552 118.958C30.4687 119.713 30.703 120.25 31.2134 120.88C31.2291 120.901 31.3645 121.073 31.4166 121.135C31.4739 121.219 31.5624 121.338 31.5728 121.359C31.7499 121.614 31.9218 121.875 32.078 122.14C32.2499 122.432 32.4166 122.734 32.5624 123.041C32.6353 123.177 32.6978 123.317 32.7655 123.458C32.7759 123.489 32.7864 123.51 32.7968 123.531C32.802 123.547 32.8072 123.557 32.8124 123.578C33.0155 124.203 33.2395 124.807 33.3853 125.448C33.4426 125.698 33.4843 125.953 33.5259 126.208C33.5259 126.239 33.5728 126.531 33.5728 126.562C33.5884 126.745 33.6041 126.932 33.6145 127.12C33.6666 128.088 34.3749 129.015 35.3645 129.12C35.4843 130.521 35.5937 131.927 35.6978 133.344C31.4895 126.64 27.7291 119.661 24.4687 112.458ZM20.2187 101.354C20.7343 101.333 21.1718 101.146 21.5051 100.859C21.5155 102.427 21.5312 103.995 21.5416 105.562C20.9791 104.156 20.4426 102.75 19.9218 101.333C20.0207 101.344 20.1145 101.359 20.2187 101.354ZM17.0989 91.3748C17.3072 91.3643 17.5051 91.3279 17.6822 91.2654C17.7812 92.7706 17.8749 94.2706 17.9739 95.7758C17.4791 94.2914 17.0155 92.7966 16.5624 91.3018C16.7395 91.3539 16.9218 91.3852 17.0989 91.3748ZM25.6978 108.156C25.7082 108.073 25.7134 108.052 25.6978 108.156V108.156ZM16.4426 76.1196C16.4843 76.1404 16.5207 76.1612 16.5364 76.1716C16.7968 76.3123 17.0312 76.4841 17.2864 76.6352C17.3072 76.6456 17.3124 76.6508 17.3228 76.656C17.3437 76.6716 17.3541 76.6821 17.3801 76.7029C17.4739 76.781 17.5676 76.8591 17.6562 76.9425C17.8384 77.1039 18.0207 77.2706 18.1926 77.4425C18.5989 77.8487 18.9739 78.2862 19.3332 78.7341C19.4999 78.9373 19.6614 79.1404 19.8176 79.3435C19.8437 79.38 20.0884 79.6977 20.1405 79.7706C20.5051 80.255 20.8645 80.7446 21.2134 81.2446C22.5155 83.1039 23.7082 85.0414 24.7968 87.0362C25.3489 88.0466 25.8749 89.0779 26.3749 90.1143C26.6249 90.6352 26.8697 91.1612 27.1041 91.6873C27.2082 91.9216 27.3124 92.156 27.4166 92.3904C27.4687 92.505 27.5207 92.6248 27.5728 92.7446C27.5884 92.781 27.6614 92.9529 27.6978 93.0362C27.9739 93.6925 28.2343 94.3591 28.4947 95.0258C27.6874 94.7498 26.7239 94.9789 26.1301 95.8748C25.9166 96.1873 25.7187 96.5102 25.5207 96.8331C25.5051 94.5935 25.4895 92.3487 25.4739 90.1091C25.4687 89.255 24.8541 88.3539 23.9895 88.1612C23.0676 87.9477 22.2343 88.3175 21.7082 89.0883C21.6666 89.1404 21.6353 89.2029 21.5989 89.255C21.4791 87.3591 21.3593 85.4633 21.2395 83.5623C21.1718 82.5518 20.5155 81.7185 19.4843 81.5779C19.0832 81.5258 18.7134 81.5883 18.3957 81.7341C18.4166 81.2393 18.4478 80.7446 18.4947 80.255C18.5937 79.255 17.6509 78.3904 16.7447 78.2654C16.6197 78.2498 16.4999 78.2446 16.3801 78.2498C16.3541 77.9425 16.328 77.63 16.302 77.3175C16.2551 76.7966 16.0416 76.2862 15.6978 75.906C15.703 75.906 15.7082 75.906 15.7134 75.906C15.7239 75.9216 16.052 75.9737 16.1614 76.005C16.1614 76.0102 16.3697 76.0935 16.4426 76.1196ZM30.0312 99.4998C30.0312 99.4477 30.0259 99.4008 30.0259 99.3487C30.0416 99.3956 30.0572 99.4425 30.0728 99.4893C30.0572 99.4893 30.0468 99.4946 30.0312 99.4998ZM32.5155 109.239C32.4999 109.239 32.4843 109.245 32.4687 109.245C32.4791 109.021 32.4843 108.791 32.4895 108.567C32.5416 108.797 32.5884 109.021 32.6353 109.245C32.5937 109.245 32.552 109.239 32.5155 109.239ZM38.9947 86.7446C38.9582 86.4841 38.9791 86.656 38.9947 86.7446V86.7446ZM88.828 82.7289C88.2187 81.781 87.0624 81.4633 86.0624 82.005C77.2343 86.7706 69.1249 92.9112 62.078 100.052C55.0312 107.192 48.9895 115.38 44.2812 124.239C44.2707 124.265 44.2551 124.291 44.2447 124.312C44.6978 117.656 44.802 110.979 44.5416 104.307C44.078 92.5206 42.5312 80.7602 39.9218 69.2602C38.453 62.8123 36.6457 56.4477 34.5103 50.1925C34.1666 49.1977 33.1041 48.4321 32.0207 48.781C31.0312 49.1039 30.2447 50.1977 30.6093 51.2706C34.3697 62.2654 37.0989 73.6039 38.7603 85.1039C38.8124 85.4477 38.8593 85.7914 38.9114 86.1404C38.9374 86.3435 38.9687 86.5466 38.9947 86.7498C38.9947 86.781 38.9999 86.8071 39.0051 86.8435C39.1041 87.5987 39.203 88.3591 39.2916 89.1196C39.4687 90.5727 39.6249 92.0206 39.7655 93.4789C40.0468 96.3852 40.2603 99.3018 40.4062 102.219C40.6926 107.984 40.7187 113.765 40.4739 119.536C40.3384 122.802 40.1145 126.067 39.8072 129.323C39.7395 130.036 39.6666 130.734 39.5937 131.427C38.9739 123.521 38.1249 115.62 36.4687 107.859C34.4478 98.3904 31.1353 89.0258 25.8332 80.8748C24.5051 78.8383 23.078 76.7706 21.4322 74.9841C19.6249 73.0258 17.1926 71.4737 14.4374 71.9581C12.2603 72.3383 10.7343 74.0831 10.0884 76.1143C9.48428 78.0206 9.61449 80.0987 9.9322 82.0362C10.2968 84.281 10.9843 86.505 11.5884 88.6925C12.2499 91.0727 12.9634 93.4425 13.7239 95.7914C15.2707 100.562 17.0207 105.26 18.9687 109.88C22.8801 119.161 27.5364 128.109 32.9634 136.594C33.6093 137.604 34.2707 138.614 34.9374 139.614C35.2395 140.057 35.703 140.396 36.2134 140.541C36.3489 141.536 37.1249 142.453 38.2082 142.406C38.3384 142.401 38.4739 142.38 38.6041 142.349C38.7187 142.406 38.8384 142.448 38.9634 142.479C40.0676 142.729 41.078 142.151 41.4426 141.088C41.9999 140.864 42.4687 140.427 42.5624 139.802C42.7134 138.791 42.8541 137.781 42.9895 136.771C43.3332 135.875 43.6822 134.979 44.052 134.094C44.0624 134.067 44.0676 134.052 44.078 134.036C44.1353 133.896 44.1926 133.755 44.2551 133.62C44.3697 133.354 44.4843 133.088 44.5989 132.823C44.8541 132.245 45.1197 131.666 45.3853 131.088C45.8957 129.989 46.4218 128.901 46.9739 127.817C49.1978 123.448 51.7447 119.239 54.5832 115.234C55.2864 114.245 55.9999 113.265 56.7395 112.302C56.828 112.187 56.9166 112.073 57.0051 111.958C57.0207 111.937 57.0364 111.916 57.0572 111.89C57.2343 111.661 57.4114 111.432 57.5937 111.208C57.9843 110.708 58.3853 110.219 58.7916 109.729C60.3697 107.812 62.0155 105.953 63.7291 104.156C67.0989 100.625 70.7135 97.3331 74.5572 94.3279C74.6666 94.2393 74.7812 94.1508 74.8957 94.0623C75.078 93.9216 75.078 93.9216 74.901 94.0571C74.9687 94.005 75.0364 93.9529 75.1041 93.9008C75.3593 93.7081 75.6093 93.5154 75.8645 93.3279C76.4166 92.9112 76.9791 92.4998 77.5416 92.0987C78.6666 91.2914 79.8072 90.505 80.9635 89.7498C83.2864 88.2289 85.6666 86.8123 88.1041 85.4946C89.0364 84.9893 89.4062 83.6248 88.828 82.7289Z" fill="#9CB66F"></path></g><mask id="mask1_1250_3022" style="mask-type:luminance" maskUnits="userSpaceOnUse" x="0" y="0" width="50" height="52"><path d="M0 0H49.3333V51.5156H0V0Z" fill="white"></path></mask><g mask="url(#mask1_1250_3022)"><path d="M45.5831 23.6041C44.9373 29.1718 43.5831 34.8697 40.5258 39.6406C40.2602 40.0572 39.9738 40.4635 39.6769 40.8645C41.9061 36.1458 43.0571 30.9166 43.005 25.6979C43.5258 23.5052 43.9425 21.2864 44.2446 19.0468C44.3436 18.3281 44.0727 17.5989 43.3071 17.3906C43.0675 17.3229 42.7811 17.3385 42.5154 17.427C42.354 17.0833 42.0311 16.8072 41.6769 16.6927C41.13 15.7291 39.5519 15.8593 39.2133 17.0104C37.38 23.2656 35.7394 29.5781 34.2706 35.9322C34.0311 31.1874 33.7967 26.4427 33.5571 21.6979C34.2029 19.7343 34.505 17.6614 34.4738 15.5937C34.6508 15.177 34.854 14.7656 35.0988 14.3749C35.6717 13.4427 36.4425 12.6145 37.3592 12.0624C38.2394 11.5312 39.2811 11.2708 40.1821 11.3802C42.3227 11.6458 44.0467 13.3437 44.9373 15.2916C46.0779 17.7812 45.9008 20.8802 45.5831 23.6041ZM16.7446 43.9947C18.0415 45.6093 19.8592 46.6614 21.9477 46.7864C24.0571 46.9114 26.1456 45.9062 27.2498 44.0833C28.0154 42.8177 28.2654 41.2031 27.8331 39.7916C27.8644 39.6197 27.8488 39.4374 27.7758 39.2656C25.6144 34.1093 23.9998 28.7187 22.9842 23.2187C23.6508 25.4322 24.5258 27.5885 25.6092 29.6354C25.8279 30.0572 26.1717 30.2552 26.5363 30.2916C26.6821 31.1041 26.8383 31.9114 27.0154 32.7187C27.2446 33.7812 28.4581 33.9114 29.1561 33.3697C29.2029 34.1249 29.2446 34.8801 29.2811 35.6354C29.255 38.0781 29.2967 40.526 29.4165 42.9739C29.4842 44.4479 31.4061 44.6718 31.9581 43.6041C31.9998 44.4531 32.0415 45.302 32.0831 46.1458C32.0988 46.4687 32.2133 46.7656 32.4008 46.9947C31.3383 47.4947 30.2238 47.8854 29.0623 48.1302C24.6977 49.0624 19.5467 47.6041 16.7446 43.9947ZM6.06752 40.7187C5.28627 40.1822 4.52064 39.4583 4.09356 38.8229C3.08835 37.3489 2.65606 35.8124 2.81231 34.0468C2.81231 34.0312 2.85397 33.7343 2.84356 33.7916C2.85397 33.7291 2.86439 33.6666 2.87481 33.6041C2.92168 33.3906 2.97897 33.177 3.04668 32.9635C3.07273 32.8801 3.09877 32.7968 3.13002 32.7187C3.14564 32.677 3.15085 32.6562 3.16127 32.6354C3.17168 32.6145 3.17689 32.5937 3.19772 32.5572C3.29147 32.3645 3.39564 32.1718 3.51022 31.9895C3.66127 31.7552 3.89043 31.4791 4.2446 31.1718C4.25502 31.1666 4.29668 31.1302 4.32793 31.1093C4.41647 31.0468 4.50502 30.9843 4.59356 30.9322C4.82273 30.7916 5.05189 30.6614 5.29668 30.5676C5.82273 30.3645 6.37481 30.2708 6.93731 30.2447C7.57793 30.7656 8.29147 31.1979 9.04668 31.5156C7.05189 31.2499 4.95814 32.3958 4.07793 34.2083C3.10918 36.2083 3.75502 38.4635 5.35918 39.927C7.19773 41.5989 9.69772 42.2812 12.0675 42.7968C12.6977 42.9322 13.3331 43.052 13.9686 43.1562C13.9165 43.2343 13.8748 43.3124 13.8383 43.3958C12.2133 43.1145 10.5988 42.7656 9.04147 42.2135C7.9946 41.8385 6.98939 41.3437 6.06752 40.7187ZM6.80189 22.2343C7.40606 20.5052 9.06752 18.9427 10.8123 18.3177C12.8175 17.5989 14.8019 17.8802 16.6144 18.9999C16.7186 19.0624 16.8175 19.1406 16.9217 19.2135C16.9529 19.2708 16.9842 19.3229 17.0154 19.3802C16.229 19.2499 15.3019 19.7708 15.3852 20.6822C15.5311 22.2604 15.755 23.8229 16.0571 25.3749C15.1613 24.1145 14.0831 22.9895 12.854 22.0364C12.4581 21.0208 11.7863 20.1041 10.8383 19.427C10.0258 18.8437 8.74981 19.6197 8.81231 20.5885C8.82793 20.8385 8.85918 21.0885 8.89564 21.3333C7.89564 23.5364 8.28106 26.1406 9.98939 27.8906C10.0258 27.927 10.0675 27.9531 10.104 27.9843C9.42168 27.802 8.72897 27.6718 8.02585 27.6145C7.98939 27.5729 7.94772 27.5312 7.91127 27.4895C6.57793 26.026 6.14564 24.1197 6.80189 22.2343ZM17.7811 14.2604C17.5571 13.4322 17.3956 12.5937 17.3488 11.7343C17.3123 11.0781 17.3592 10.3177 17.4477 9.83328C17.7133 8.40619 18.1821 7.27598 19.005 6.0989C19.2915 5.67703 19.7811 5.14057 20.2706 4.7239C20.4946 4.53119 20.604 4.45307 20.9269 4.24994C21.0675 4.1614 21.2133 4.08327 21.3592 4.00515C21.5206 3.92182 21.6717 3.8489 21.6821 3.84369C22.9529 3.33328 24.104 3.33848 25.4321 3.84369C28.1613 4.87494 30.0363 7.9114 30.9425 10.6614C31.4269 12.1249 31.6977 13.6406 31.7602 15.1614C31.5831 15.6406 31.4425 16.1302 31.3175 16.6249C31.0102 16.7916 30.7654 17.0572 30.7133 17.4114C30.6092 18.1302 30.5154 18.8541 30.4165 19.5781C30.3019 18.7916 30.1821 18.0104 30.0519 17.2239C29.6561 14.8124 29.1977 12.4114 28.6821 10.0208C28.5415 9.37494 27.8279 8.96348 27.2029 9.05723C26.4842 9.16661 26.1248 9.69265 26.0311 10.3802C25.9477 11.0572 25.8748 11.7343 25.8071 12.4114C25.3019 11.1718 24.7498 9.94265 24.1508 8.73953C23.8852 8.21348 23.1769 7.96869 22.63 8.11973C22.5519 8.14057 22.479 8.17182 22.4113 8.20307C22.1352 7.80723 21.854 7.4114 21.5623 7.02598C21.1977 6.54161 20.6665 6.23432 20.0415 6.40619C19.4633 6.56765 19.0623 7.11453 19.0519 7.70828C18.979 11.0833 19.13 14.4635 19.4894 17.8229C19.3279 17.6822 19.1665 17.5468 18.9998 17.4166C18.505 16.401 18.0831 15.3541 17.7811 14.2604ZM20.0988 24.2812C20.2498 24.4999 20.4008 24.7187 20.5571 24.9322C20.5623 24.9426 20.5727 24.9531 20.5779 24.9635C20.604 25.0989 20.63 25.2343 20.6613 25.3697C20.4738 25.0104 20.2863 24.6458 20.0988 24.2812ZM9.29147 37.8281C9.28106 37.8281 9.12481 37.8958 9.07272 37.9114C8.9946 37.9374 8.90606 37.9531 8.82272 37.9791C8.82272 37.9791 8.77585 37.9895 8.7446 37.9947C8.67689 37.9999 8.47897 38.0156 8.41127 38.0156C8.35397 38.0156 8.07273 37.9999 8.04668 38.0051C7.94252 37.9843 7.83835 37.9635 7.73418 37.9374C7.67689 37.9218 7.44252 37.8437 7.40085 37.8333C7.36439 37.8124 7.16647 37.7083 7.09877 37.6666C7.04668 37.6354 6.98939 37.5989 6.93731 37.5624C6.92689 37.552 6.91647 37.552 6.91127 37.5468C6.90085 37.5364 6.88522 37.5208 6.85918 37.4947C6.78106 37.4166 6.70814 37.3385 6.63522 37.2551C6.62481 37.2291 6.50502 37.0468 6.48418 37.0051C6.47377 36.9843 6.46856 36.9791 6.46335 36.9687C6.43731 36.901 6.41647 36.8281 6.39564 36.7604C6.38002 36.6926 6.36439 36.6302 6.34877 36.5624C6.34877 36.5416 6.34356 36.5312 6.33835 36.526C6.34356 36.5104 6.34356 36.4895 6.34356 36.4531C6.36439 35.9114 6.44773 35.4531 6.80189 34.9947C6.79147 35.0104 7.01543 34.7708 7.10397 34.6874C7.11439 34.677 7.1196 34.677 7.12481 34.6718C7.20293 34.6145 7.28627 34.5624 7.3696 34.5156C7.54147 34.4166 7.76022 34.3749 7.92168 34.3697C8.09877 34.3697 8.32273 34.4166 8.56752 34.5624C8.63002 34.5989 8.68731 34.6354 8.74981 34.677C8.75502 34.6822 8.76022 34.6874 8.77064 34.6926C8.80189 34.7187 8.83314 34.7447 8.86439 34.7708C8.91127 34.8229 8.96335 34.8697 9.01022 34.9218C9.03106 34.9426 9.15085 35.0885 9.14043 35.0729C9.35918 35.3697 9.38522 35.4635 9.46856 35.7916C9.47377 35.8124 9.47897 35.8281 9.47897 35.8385C9.48418 35.9322 9.48939 36.0208 9.48418 36.1145C9.48418 36.1249 9.48418 36.1249 9.48418 36.1354C9.46335 36.2083 9.41647 36.3801 9.43731 36.3489C9.40085 36.4426 9.35397 36.5312 9.32272 36.6249C9.17168 37.0416 9.26543 37.4166 9.4946 37.7135C9.42689 37.7551 9.35918 37.7916 9.29147 37.8281ZM12.4373 32.0833C12.1456 32.3437 11.8696 32.6197 11.604 32.9114C11.255 32.5156 10.8436 32.177 10.3748 31.927C11.0467 32.0729 11.7394 32.1354 12.4373 32.0833ZM12.9165 28.9739C12.3175 28.7187 11.7029 28.4791 11.0779 28.2708C11.38 28.2552 11.6665 28.1406 11.8696 27.9166C12.1977 28.2916 12.5519 28.6406 12.9165 28.9739ZM23.3488 36.4791C23.1456 36.4739 22.9425 36.4843 22.7446 36.5051C21.8227 34.7343 21.0311 32.901 20.3644 31.026C20.3852 30.9531 20.4008 30.8802 20.4113 30.802C20.4113 30.7968 20.4113 30.7864 20.4113 30.776C21.3904 32.677 22.3696 34.5781 23.3488 36.4791ZM21.0831 43.6718C22.0258 43.651 22.8748 42.5104 22.2498 41.6458C20.604 39.3645 18.354 37.6926 15.6769 36.8333C14.7394 36.5312 13.6769 37.5312 14.0206 38.4895C14.2706 39.2031 14.5311 39.9114 14.8175 40.6041C13.5727 40.4218 12.3383 40.1666 11.1352 39.8229C12.3696 38.901 13.0363 37.3802 12.8488 35.7708C12.8436 35.7239 12.8383 35.677 12.8279 35.6249C13.5415 34.6041 14.4998 33.7343 15.5779 33.0989C15.9477 33.5729 16.3488 34.0208 16.7758 34.4479C17.1665 34.8281 17.7654 34.8906 18.2602 34.7083C19.0154 35.9166 19.7758 37.1197 20.5363 38.3281C20.5571 38.4999 20.6092 38.6614 20.6925 38.8072C20.9894 39.3072 21.3279 39.7708 21.7081 40.1979C21.7186 40.2083 21.7238 40.2239 21.7342 40.2395C21.8592 40.4322 22.005 40.5781 22.1717 40.677C22.9894 41.4635 23.9633 42.0781 25.0363 42.5051C24.9894 42.5989 24.9425 42.6926 24.88 42.7864C24.6092 43.2187 24.2081 43.5833 23.6925 43.8177C23.0727 44.0989 22.3748 44.1718 21.6925 44.0729C21.2654 44.0104 20.8644 43.8697 20.4842 43.677C20.6821 43.6718 20.8852 43.677 21.0831 43.6718ZM35.8644 41.1041C35.9633 41.1614 36.0675 41.2031 36.1769 41.2343C36.1769 41.5364 36.1769 41.8333 36.1769 42.1354C36.1821 42.8801 36.7863 43.3854 37.4269 43.4583C36.6508 44.2135 35.8227 44.9114 34.9373 45.5312C35.2342 44.052 35.5415 42.5781 35.8644 41.1041ZM47.6665 14.8906C46.6613 12.2135 44.5936 9.89057 41.8175 8.99994C38.8748 8.05203 35.9581 9.29682 33.9633 11.4531C33.9217 11.2812 33.88 11.1041 33.8331 10.927C32.88 7.34369 30.7863 3.65098 27.4321 1.81765C24.2342 0.0728599 20.505 0.666608 17.9373 3.21348C15.505 5.61973 14.3227 9.21348 14.729 12.5885C14.854 13.6093 15.0779 14.5989 15.38 15.5572C13.8331 15.1249 12.1821 15.0885 10.5415 15.5729C7.9321 16.3437 5.59877 18.2604 4.50502 20.7656C3.48418 23.1041 3.61439 25.7083 4.88522 27.8749C2.72897 28.5052 1.05189 30.1979 0.406057 32.3749C-0.250193 34.5937 0.150849 37.0208 1.13002 39.0781C2.19773 41.302 4.18731 42.9427 6.37481 43.9999C9.15606 45.3385 12.1873 45.8749 15.2133 46.3333C18.3019 49.7447 23.0988 51.4374 27.6873 51.0364C33.4842 50.5312 38.4581 46.9895 41.8696 42.427C45.7081 37.2864 47.3279 30.8593 48.1561 24.5989C48.5779 21.3958 48.8279 17.9791 47.6665 14.8906Z" fill="#E998AE"></path></g><mask id="mask2_1250_3022" style="mask-type:luminance" maskUnits="userSpaceOnUse" x="75" y="45" width="46" height="48"><path d="M75.2705 45.9375H120.265V93H75.2705V45.9375Z" fill="white"></path></mask><g mask="url(#mask2_1250_3022)"><path d="M115.51 84.0939C114.25 85.8856 112.531 87.2866 110.604 88.297C110.755 88.1408 110.895 87.9741 111.036 87.8075C111.166 87.6512 111.286 87.495 111.406 87.3335C111.937 87.4116 112.515 87.2085 112.776 86.7033C113.473 85.3283 114.177 83.9585 114.875 82.5835C115.125 82.0991 115.083 81.6408 114.88 81.2866C115.104 80.0887 113.27 79.3022 112.505 80.245C112.578 79.2189 112.531 78.1772 112.359 77.1356C112.197 76.1408 110.739 75.8283 110.109 76.5366C110.01 76.646 109.916 76.7502 109.822 76.8543C109.734 76.495 109.614 76.1408 109.468 75.7918C110.276 75.2085 110.989 74.5158 111.609 73.7345C111.817 73.8908 112.072 73.9845 112.348 73.9533C114.416 73.6877 116.348 75.1147 117.036 77.0939C117.88 79.5054 116.911 82.0991 115.51 84.0939ZM88.2287 83.4897C88.4526 83.547 88.6974 83.547 88.9214 83.495C89.3901 84.1825 89.9318 84.8179 90.5255 85.396C90.536 85.5522 90.5672 85.6929 90.6297 85.8179C89.7703 85.0991 88.9683 84.3231 88.2287 83.4897ZM78.7651 69.9116C78.786 69.9168 78.8068 69.9272 78.8276 69.9325C79.0203 69.9845 79.2287 69.9897 79.4266 69.9533C79.562 71.0106 79.7391 72.0627 79.9787 73.1095C80.0047 73.2085 80.0308 73.3022 80.0568 73.4012C79.5047 72.2866 79.0776 71.1147 78.7651 69.9116ZM78.4891 57.3543C78.7183 55.9012 79.1193 54.2345 79.6662 53.021C79.9683 52.3491 80.3276 51.6877 80.7755 51.0939C81.0255 50.7658 81.6662 50.146 82.0255 49.9116C82.2964 49.7345 82.5724 49.5939 82.8641 49.4845C82.8589 49.5002 82.8485 49.5158 82.8485 49.5314C82.8224 49.646 82.8016 49.7554 82.7755 49.8647C82.4474 49.9429 82.1453 50.1304 81.963 50.4429C81.7339 50.8387 81.5099 51.2397 81.3016 51.646C81.286 51.646 81.2703 51.646 81.2547 51.646C80.7755 51.7189 80.2235 52.0887 80.1349 52.6147C80.0099 53.3752 79.9058 54.1408 79.8172 54.9064C78.9735 57.0835 78.3745 59.3491 78.0412 61.6616C78.1141 60.2189 78.2599 58.7762 78.4891 57.3543ZM90.1558 52.9637C89.9058 53.7241 89.6714 54.4845 89.4474 55.2502C88.911 54.1825 88.3016 53.1512 87.5985 52.1825C87.0255 51.3908 85.937 51.3491 85.3849 52.0522C85.437 51.3335 85.4787 50.6147 85.4943 49.8908C85.4995 49.6564 85.4422 49.4533 85.3433 49.2762C85.6037 49.3231 85.8589 49.3856 86.1245 49.4741C87.9474 50.0887 89.213 51.3908 90.1558 52.9637ZM99.3797 48.9533C100.942 48.3595 102.463 48.6929 103.619 49.745C104.848 50.8543 105.578 52.3595 105.796 54.0262C105.89 54.7345 105.901 55.4429 105.859 56.1564C105.802 55.4325 105.723 54.7085 105.619 53.9845C105.458 52.8647 103.619 52.6564 103.156 53.6616C102.979 54.047 102.807 54.4325 102.64 54.8231C102.546 54.0002 102.432 53.1877 102.291 52.3752C102.192 51.797 101.541 51.3856 100.994 51.3856C100.973 51.3856 100.958 51.3908 100.942 51.3908C100.354 50.5627 98.9839 50.5835 98.5672 51.771C97.3433 55.2397 96.3328 58.7762 95.5203 62.3543C95.2183 61.4377 94.7964 60.5679 94.1766 59.9064C94.7183 59.7762 95.1714 59.3491 95.1505 58.646C95.0464 55.1043 95.6037 50.396 99.3797 48.9533ZM114.666 59.8179C116.057 60.6252 117.015 62.0106 117.416 63.5679C117.822 65.146 117.526 66.7606 116.609 68.2033C115.807 69.4637 114.598 70.4012 113.208 70.9429C114.104 68.6668 114.328 66.1147 113.598 63.771C113.614 63.7033 113.635 63.6356 113.651 63.5679C113.989 62.2918 112.359 61.2762 111.411 62.2502C111.302 62.3127 111.203 62.3908 111.104 62.495C111.067 62.5366 111.031 62.5835 110.994 62.6252C110.906 62.047 110.802 61.4689 110.656 60.896C110.546 60.4533 110.411 60.021 110.265 59.5835C111.682 59.0314 113.333 59.0418 114.666 59.8179ZM88.0516 60.7241C87.6922 61.8283 87.312 62.9272 86.9058 64.021C86.7495 62.771 86.5151 61.5314 86.1922 60.3127C86.3485 58.9377 86.588 57.5679 86.9005 56.2137C87.4683 57.3075 87.937 58.4429 88.3016 59.6095C88.2183 59.9793 88.1349 60.3543 88.0516 60.7241ZM104.572 75.5939C104.312 75.9064 104.057 76.2189 103.786 76.521C103.416 76.9429 103.286 77.5262 103.52 78.0366C102.802 78.8856 102.083 79.7345 101.369 80.5783C101.656 78.4325 101.937 76.2814 102.223 74.1304C102.557 74.0522 102.859 73.8543 103 73.5314C103.046 73.422 103.088 73.3127 103.135 73.2085C103.135 73.2033 103.135 73.1981 103.135 73.1981C104.364 70.2918 105.197 67.271 105.635 64.1929C105.729 63.9429 105.822 63.6929 105.927 63.4429C106.505 63.5054 107.119 63.2293 107.354 62.5106C107.494 62.0835 107.708 61.6929 107.968 61.3335C108.364 62.8075 108.541 64.3387 108.494 65.87C106.562 68.8127 105.208 72.12 104.572 75.5939ZM92.9735 68.8491C92.6401 69.9533 92.2703 71.0366 91.8745 72.12C91.7026 71.9585 91.5308 71.8022 91.3485 71.6512C91.8641 69.521 92.0724 67.3231 91.9839 65.1356C92.1818 64.1668 92.3901 63.2033 92.6089 62.245C92.661 62.3335 92.7078 62.422 92.7495 62.5054C93.161 63.4012 93.3172 64.4533 93.4995 65.4116C93.5516 65.6877 93.5933 65.9637 93.6349 66.2397C93.4058 67.1095 93.1818 67.9793 92.9735 68.8491ZM95.9058 83.12C96.9683 81.9325 97.9422 80.6668 98.838 79.3491C98.6349 80.8543 98.437 82.3595 98.2339 83.8647C97.4318 83.6877 96.6453 83.4325 95.9058 83.12ZM85.661 73.4585C85.7599 73.3022 85.8433 73.1408 85.9318 72.9793C86.0985 72.922 86.2547 72.8335 86.3849 72.7137C86.3224 73.6616 86.2808 74.6043 86.2547 75.5575C86.2391 76.0314 86.4578 76.3908 86.7755 76.6095C86.8016 77.5835 86.937 78.5522 87.1766 79.5054C86.5047 78.8387 86.0047 77.9637 85.5933 77.1043C85.2183 76.3127 84.9058 75.4845 84.6141 74.646C85.0255 74.3179 85.3849 73.896 85.661 73.4585ZM83.6558 71.5106C83.4318 70.6772 83.2287 69.8335 83.0516 68.9897C83.1037 67.5731 83.1818 66.1616 83.2912 64.7502C83.3172 66.8491 83.5255 68.9481 83.8953 71.021C83.8172 71.1825 83.7391 71.3439 83.6558 71.5106ZM90.3797 75.797C90.4214 75.3647 90.4683 74.9272 90.5203 74.495C90.6193 74.5991 90.713 74.7085 90.8068 74.8127C90.6662 75.1408 90.5255 75.4689 90.3797 75.797ZM98.3328 72.3543C98.3224 72.495 98.312 72.6356 98.3016 72.7762C98.2651 73.3491 98.5516 73.7397 98.9526 73.9325C98.1714 75.5002 97.2599 76.995 96.2443 78.4168C96.6089 76.2554 96.7912 74.0679 96.786 71.8804C97.1453 72.3595 97.7912 72.5418 98.3328 72.3543ZM93.8016 81.3022C93.8276 81.3179 93.8537 81.3335 93.8797 81.3491C93.7599 81.4845 93.6349 81.62 93.5099 81.7554C93.5151 81.7241 93.5151 81.6981 93.5203 81.6668C93.6141 81.547 93.713 81.4272 93.8016 81.3022ZM104.937 80.521C104.739 81.4793 104.484 82.4272 104.156 83.3647C103.453 83.7085 102.713 83.9325 101.953 84.047C102.947 82.87 103.942 81.6981 104.937 80.521ZM109.729 81.0054C109.546 82.0262 109.197 83.021 108.708 83.9325C108.328 84.6356 108.635 85.4377 109.234 85.7814C108.328 86.9064 107.27 87.87 105.958 88.5106C104.541 89.1981 103.005 89.271 101.505 88.9585C101.666 88.9377 101.833 88.9168 102 88.8856C102.713 88.7606 103.119 87.8804 102.937 87.2293C102.875 86.9897 102.75 86.797 102.598 86.646C105.583 86.1043 108.239 84.3439 109.458 81.4064C109.479 81.3491 109.494 81.2918 109.52 81.2397C109.588 81.1616 109.656 81.0835 109.729 81.0054ZM103.307 60.6408C103.265 61.5366 103.192 62.4272 103.078 63.3127C102.968 63.5939 102.854 63.87 102.75 64.1512C102.817 63.4325 102.864 62.7137 102.895 61.9897C103.026 61.5366 103.161 61.0887 103.307 60.6408ZM91.8485 86.521C92.4787 86.9897 93.1558 87.396 93.8589 87.745C94.1141 87.9793 94.3693 88.2033 94.6297 88.422C93.5151 87.8856 92.4422 87.2293 91.4318 86.4637C91.5672 86.5002 91.7078 86.521 91.8485 86.521ZM116.411 72.2502C119.13 70.245 120.755 66.8595 120.135 63.3856C119.729 61.1512 118.38 59.1356 116.546 57.8231C114.682 56.495 112.244 56.1616 110.062 56.8022C109.765 56.8856 109.468 56.9897 109.182 57.1095C109.052 56.8647 108.921 56.6147 108.781 56.3752C108.713 56.271 108.64 56.1772 108.557 56.0939C108.583 55.4533 108.578 54.8075 108.51 54.1668C108.276 51.8856 107.406 49.6877 105.755 48.0522C104.083 46.396 101.781 45.6304 99.463 46.1252C97.2026 46.6043 95.2287 48.2814 94.0933 50.2554C93.6401 51.0366 93.3068 51.8647 93.0568 52.7241C92.0099 50.62 90.5828 48.7554 88.4214 47.5679C86.6297 46.5783 84.4683 46.1564 82.4735 46.7554C80.713 47.2814 79.3172 48.4741 78.2808 49.9689C76.1037 53.12 75.6349 57.3231 75.3849 61.0366C75.0828 65.5835 75.5724 70.2502 77.5412 74.4012C78.8485 77.1564 80.8172 79.5835 83.2964 81.3127C84.6766 83.6147 86.3953 85.7085 88.4162 87.4689C92.5672 91.0783 97.8589 93.1929 103.395 92.9272C108.838 92.672 114.171 90.297 117.505 85.9064C119.515 83.2554 120.817 79.4897 119.583 76.2241C118.984 74.6408 117.848 73.1825 116.411 72.2502Z" fill="#E998AE"></path></g></svg> 