<?xml version="1.0" encoding="UTF-8"?> <svg xmlns="http://www.w3.org/2000/svg" width="298" height="15" viewBox="0 0 298 15" fill="none"><mask id="mask0_1250_2724" style="mask-type:luminance" maskUnits="userSpaceOnUse" x="0" y="0" width="298" height="15"><path d="M0 0H297.333V14.8438H0V0Z" fill="white"></path></mask><g mask="url(#mask0_1250_2724)"><path d="M11.5 12.2285C12.75 12.1191 12.0209 11.7962 12.2292 11.4733C13.6875 11.2546 12.9584 11.6868 13.4792 11.7962C14.4219 11.5827 15.0469 11.1504 15.6719 11.1504C15.7761 11.2546 15.8802 11.2546 15.6719 11.3639C16.6094 10.9316 18.4896 11.041 19.5313 10.5046C19.6355 10.5046 19.6355 10.6087 19.6355 10.6087C19.4271 10.3952 19.4271 10.1816 19.4271 10.0723C19.948 9.96289 20.3646 9.74935 20.6771 9.96289C20.3646 9.96289 20.3646 10.0723 20.1563 10.1816L20.6771 9.96289C21.2032 10.2858 19.948 10.1816 19.948 10.5046C21.099 10.2858 22.349 9.85872 23.1823 9.85872C23.3907 10.1816 21.2032 10.1816 22.349 10.3952C21.9323 10.3952 21.4115 10.3952 20.9948 10.3952C22.0365 10.8275 20.1563 10.3952 21.2032 10.9316C22.974 10.9316 23.0782 10.6087 24.8542 10.6087C25.2709 10.3952 24.75 10.2858 25.0625 10.0723C27.4584 9.53581 27.0417 10.8275 28.8177 10.1816C29.2344 9.85872 29.4427 9.42643 30.6927 9.53581L30.2761 9.96289C31.948 9.85872 31.2188 9.31706 32.9896 9.42643C32.6771 9.63998 31.6355 9.63997 31.948 9.63997C33.0938 9.85872 32.7813 9.31706 33.6146 9.31706L33.823 9.63997C35.599 9.42643 37.5782 8.99414 39.5625 8.7806C39.4584 8.88997 39.1459 8.99414 39.5625 9.10352C42.0677 8.7806 44.8855 8.88997 47.3855 8.99414L48.5365 8.67122C48.7448 8.67122 48.9532 8.7806 48.7448 8.88997C49.6823 8.99414 48.7448 8.67122 49.2657 8.56185C49.7865 8.56185 49.9948 8.67122 49.6823 8.7806C51.349 8.45768 54.375 7.91602 56.1511 8.23893L55.8386 8.34831C57.1927 8.45768 57.2969 7.5931 58.6563 7.81185L58.4427 7.91602C61.3646 7.91602 64.7032 7.5931 67 8.02539C67.4167 7.5931 69.9219 8.13476 70.1302 7.48893C71.7969 7.70247 71.3802 7.91602 73.7813 8.02539C74.4063 8.02539 74.7188 7.5931 75.5521 7.48893V7.81185L76.599 7.37956L77.224 7.81185L77.9532 7.70247C77.6407 7.70247 77.3282 7.5931 77.3282 7.48893C78.1615 7.27018 79.8334 7.70247 79.8334 7.81185L82.5469 7.48893C82.4375 7.5931 82.0209 7.70247 81.7084 7.81185C83.1719 7.48893 82.0209 8.13477 83.2761 7.81185C83.0677 7.70247 83.3802 7.5931 83.3802 7.5931C84.0052 7.81185 85.5677 7.81185 86.7188 7.70247L86.5105 7.91602C88.4896 7.91602 90.7865 7.70247 93.0834 7.70247C92.2448 7.5931 92.4532 7.16602 93.0834 7.16602L93.3959 7.48893C93.8125 7.27018 92.6615 7.37956 93.6042 7.05664C94.4375 7.05664 94.125 7.48893 93.7084 7.5931L94.75 7.48893C94.8542 7.5931 94.5417 7.70247 94.5417 7.81185C94.9584 7.5931 96.3177 8.13477 96.9427 7.81185L97.0469 7.91602C99.3386 7.91602 100.385 7.81185 102.156 7.81185C102.156 7.48893 102.885 7.5931 103.516 7.37956C104.87 7.48893 106.328 7.70247 108 7.70247C109.146 7.5931 108.313 7.48893 108.833 7.27018C108.938 7.5931 110.505 7.48893 109.667 7.70247C111.651 7.70247 112.172 7.5931 114.677 7.37956C114.365 7.27018 114.156 7.16602 114.26 7.16602C114.677 7.16602 115.302 7.27018 115.198 7.37956H115.094C117.911 6.94727 121.563 8.23893 123.755 7.70247H123.646L125.943 7.37956C126.984 7.48893 125.318 7.5931 126.047 7.81185C128.552 7.37956 130.01 7.91602 131.995 7.5931C133.557 8.45768 137.63 7.5931 139.714 8.13477L139.609 7.91602C140.13 7.70247 140.234 8.02539 140.651 8.13477C140.547 8.02539 140.026 7.91602 140.443 7.81185C145.141 7.5931 150.146 8.23893 154.948 8.45768C156.719 8.56185 155.99 7.48893 158.182 7.91602L157.552 8.23893C161.099 7.81185 164.75 8.34831 168.297 8.02539C168.089 8.13477 168.089 8.23893 167.776 8.23893C168.51 8.45768 170.49 8.23893 170.49 8.02539C171.01 8.02539 170.594 8.23893 170.906 8.34831C171.635 8.45768 172.786 8.02539 173.099 8.23893C173.203 8.23893 172.891 8.34831 172.786 8.34831C173.307 8.23893 174.974 8.34831 174.557 8.13477C175.813 8.23893 177.063 8.02539 178.104 8.23893C178.839 7.91602 180.297 8.45768 180.505 7.91602C180.401 8.45768 182.802 8.34831 183.635 8.13477C183.323 8.23893 184.365 8.23893 184.052 8.45768C184.99 8.45768 185.828 8.34831 185.724 8.13477C187.495 8.7806 189.167 7.70247 190.208 8.45768C193.026 8.23893 195.63 8.02539 198.135 7.91602C198.031 8.45768 195.318 7.91602 195.422 8.45768C197.823 8.23893 199.177 7.81185 201.578 7.91602C202.203 8.02539 201.266 8.13476 201.057 8.23893C203.458 8.02539 205.646 8.23893 207.734 8.02539C207.734 8.02539 207.526 8.13477 207.318 8.13477C207.734 8.13477 208.255 8.23893 208.255 7.91602L207.839 8.02539C207.214 7.70248 209.505 7.37956 209.615 7.16602C208.88 7.81185 211.698 7.27018 210.552 8.13477C210.865 8.13477 211.177 8.02539 211.073 7.81185C211.49 7.81185 211.594 7.91602 211.177 8.13477C212.635 8.02539 212.115 7.81185 213.474 7.70247C213.474 7.81185 213.161 7.81185 213.057 8.02539C213.786 7.81185 214.411 7.5931 215.557 7.70247C215.349 7.48893 215.453 7.5931 215.141 7.5931C217.125 7.48893 218.479 6.94727 220.672 7.16602C220.047 7.5931 221.401 7.27018 221.505 7.70247L222.651 7.5931L222.234 7.37956C223.276 7.37956 224.115 7.05664 225.052 7.16602L224.323 7.37956L226.198 7.27018L225.156 7.16602C226.198 6.94727 225.052 6.62435 226.406 6.73372C226.094 6.73372 227.453 6.73372 227.974 6.94727C228.495 6.8431 229.016 6.62435 229.745 6.73372C229.953 6.8431 229.641 7.16602 229.745 7.27018C230.271 6.94727 232.146 7.05664 232.771 6.73372C232.563 6.8431 232.563 7.05664 232.667 7.05664L233.083 6.73372C233.604 6.8431 233.604 6.8431 233.604 7.05664C235.068 7.05664 233.188 6.52018 234.859 6.73372C234.755 6.73372 234.755 6.8431 234.547 6.8431C236.214 6.94727 237.781 6.52018 239.344 6.62435C239.865 7.05664 237.99 6.73372 238.51 7.05664C240.703 6.94727 243.099 6.41081 245.292 6.41081H244.875C245.188 5.86914 246.542 6.62435 247.589 6.30143C247.271 6.41081 247.271 6.62435 247.271 6.52018C248.734 6.52018 250.297 6.19727 252.49 5.86914L251.969 6.08789C252.802 6.19727 254.266 6.08789 255.203 6.08789C255.516 5.97852 256.036 5.86914 255.724 5.76497C258.646 6.41081 261.255 5.11914 263.859 5.54622C263.547 5.54622 263.13 5.76497 263.339 5.76497L265.531 5.44206C265.323 5.22331 265.219 5.33268 264.802 5.11914C265.115 4.90039 265.635 4.79622 266.26 4.79622C265.323 5.00977 266.26 5.22331 266.781 5.33268C266.677 5.22331 266.885 5.11914 266.781 5.11914C267.927 5.44206 266.99 4.57747 268.557 4.79622L268.453 4.90039C269.078 4.79622 269.599 4.57747 270.224 4.57747C270.536 4.79622 269.599 4.79622 269.599 5.00977C270.432 4.90039 271.266 4.36393 272.104 4.57747C271.688 4.68685 271.161 4.68685 270.849 4.79622C271.792 5.00977 271.896 5.00977 272.521 5.00977H272.417H273.979L273.563 4.90039C274.604 4.04102 275.859 4.57747 277.318 3.93164C275.859 4.47331 277.109 4.25456 277.005 4.57747C277.422 4.68685 277.943 4.68685 277.839 4.79622C278.573 4.47331 278.99 4.90039 280.031 4.47331C280.135 4.57747 280.76 4.47331 280.656 4.68685C281.594 4.47331 280.448 4.57747 280.448 4.36393C281.807 3.82747 283.786 4.47331 285.771 3.7181C287.542 3.28581 287.75 2.85352 289.318 2.42643C289.839 2.5306 288.901 2.85352 288.901 2.85352C289.839 2.85352 290.464 2.63997 291.297 2.42643C291.193 2.5306 291.297 2.63997 291.609 2.63997C292.24 2.42643 291.922 2.20768 292.865 2.10352C292.76 2.20768 292.552 2.5306 292.344 2.63997C293.073 2.31706 293.802 1.99414 294.635 1.56185C294.948 1.67122 294.219 1.99414 294.01 2.20768C294.948 1.88476 296.307 1.23893 296.411 0.916016L295.786 1.02539C296.099 0.916016 295.995 1.23893 295.786 1.34831C295.052 1.7806 294.635 1.67122 294.531 1.56185L295.052 1.34831C294.323 1.02539 292.865 2.10352 291.609 2.42643L292.026 1.88477L290.88 2.5306C290.568 2.42643 290.359 2.31706 290.984 2.10352C290.151 2.10352 290.255 2.42643 289.526 2.31706C289.422 2.31706 289.422 2.31706 289.526 2.20768L288.693 2.5306C288.797 2.42643 288.479 2.20768 289.005 2.20768C287.542 2.20768 286.708 2.96289 286.083 2.63997H286.188C284.203 3.07227 286.083 2.96289 284.516 3.60872L283.37 2.96289L283.161 3.28581C282.953 3.28581 282.536 3.28581 282.641 3.17643C281.911 3.50456 282.745 3.28581 282.328 3.60872C281.281 3.39518 279.51 4.04102 279.302 3.50456C278.99 3.82747 280.24 3.60872 279.198 3.82747C278.885 3.28581 277.943 4.04102 277.005 3.82747C277.318 3.50456 278.151 3.60872 277.214 3.39518C276.693 3.93164 275.443 3.39518 274.604 3.60872C274.604 4.04102 272.938 3.93164 271.583 4.15039C271.688 4.04102 269.078 4.15039 267.823 4.04102V3.93164C267.615 4.36393 266.365 4.36393 265.427 4.47331C265.427 4.25456 265.635 4.15039 266.052 3.93164H265.531C265.323 4.04102 265.115 4.15039 264.484 4.25456L264.698 3.93164C263.547 4.04102 262.401 4.47331 260.938 4.36393C260.833 4.68685 262.193 5.11914 260.625 5.33268C260.521 5.22331 260.521 4.90039 260.938 4.90039C260.833 4.90039 260.417 5.00977 260.208 5.00977L260.833 4.68685C260.104 4.57747 260.521 4.90039 260 4.90039C260 4.68685 259.583 4.79622 259.688 4.57747C259.792 4.57747 260.208 4.68685 260.313 4.57747C259.688 4.57747 258.958 4.47331 258.75 4.36393C258.854 4.47331 258.75 4.68685 258.333 4.68685C257.182 4.79622 257.917 4.47331 257.286 4.36393C256.974 4.57747 256.245 4.36393 256.245 4.68685C255.932 4.68685 255.828 4.57747 255.724 4.47331C255.099 4.68685 252.906 4.68685 253.635 5.00977C251.656 5.44206 249.568 5.00977 247.693 5.33268V5.22331C246.542 5.44206 245.083 5.44206 244.354 5.6556C244.042 5.6556 243.516 5.54622 243.724 5.33268C242.578 5.44206 242.474 5.54622 241.224 5.44206C242.057 5.22331 240.911 5.33268 242.161 5.22331C241.016 5.11914 240.703 5.00977 239.552 5.33268C239.969 5.00977 238.719 5.00976 238.094 5.11914L238.927 5.33268C238.302 5.44206 237.781 5.33268 237.26 5.33268L237.573 5.00977C235.172 4.68685 233.396 5.86914 231.521 5.22331C230.896 5.54622 232.771 5.33268 232.25 5.6556C231.208 5.6556 230.057 5.11914 229.641 5.22331C228.182 5.11914 228.287 5.76497 226.719 5.6556C226.932 5.76497 227.141 6.08789 225.99 6.30143C224.948 6.30143 224.635 5.76497 225.365 5.6556C225.573 5.6556 225.781 5.6556 225.781 5.76497C226.094 5.6556 226.615 5.6556 226.198 5.54622L225.885 5.6556C225.365 5.54622 223.906 5.54622 224.219 5.33268C223.385 5.44206 223.906 5.54622 224.531 5.6556C223.172 5.44206 222.339 5.6556 220.984 5.54622C221.193 5.6556 221.401 5.76497 221.193 5.76497C219.104 5.6556 220.255 5.97852 218.896 6.08789C218.063 5.86914 219.208 5.6556 217.75 5.76497C216.917 5.6556 217.542 5.44206 217.854 5.33268C216.604 5.54622 215.453 5.22331 214.724 5.11914L215.453 5.00977C215.036 5.11914 214.724 5.11914 214.411 5.11914L214.828 5.33268C214.411 5.33268 214.099 5.33268 214.099 5.22331C213.682 5.44206 214.411 5.6556 213.578 5.86914C213.057 5.76497 211.906 6.08789 211.802 5.6556C213.474 5.76497 211.594 5.33268 213.057 5.22331C212.74 5.22331 212.427 5.22331 212.01 5.22331C211.906 5.22331 212.115 5.11914 212.219 5.11914C210.552 4.79622 211.49 5.54622 209.823 5.54622C210.031 5.33268 209.401 5.22331 209.193 5.22331C209.823 5.22331 209.505 5.54622 208.88 5.6556C207.839 5.54622 207.734 5.76497 207.109 5.76497L207.734 5.86914C207.526 6.08789 207.005 6.08789 206.276 6.08789C206.167 5.97852 207.005 5.97852 206.693 5.86914C205.854 6.19727 204.813 5.54622 203.667 5.76497C203.146 5.6556 203.563 5.44206 203.146 5.33268C201.891 5.54622 201.786 5.11914 200.328 5.33268C200.745 5.54622 200.745 5.54622 199.807 5.76497L202.099 5.54622L200.641 5.86914C201.266 5.86914 202.099 5.6556 202.516 5.76497C201.786 5.97852 201.891 5.86914 202.203 6.08789C201.266 5.6556 200.328 6.30143 199.281 6.08789V5.44206C197.719 5.11914 196.469 5.76497 194.38 5.6556L195.005 5.76497C194.693 5.97852 193.755 5.76497 193.026 5.86914C193.13 5.6556 192.714 5.54622 192.396 5.44206C192.396 5.54622 190.833 5.44206 190.729 5.86914L189.792 5.54622C188.12 5.44206 187.911 6.19727 186.245 6.08789C186.766 5.86914 186.036 5.6556 187.078 5.54622C186.557 5.54622 186.036 5.54622 186.036 5.6556C185.724 5.54622 184.573 5.97852 184.052 5.76497C183.844 5.86914 183.74 6.08789 183.115 6.08789C183.01 6.08789 183.115 5.97852 183.115 5.97852C183.115 6.08789 182.177 6.08789 182.698 6.30143C181.026 5.6556 178 6.30143 176.542 5.76497C175.396 5.86914 173.932 5.86914 172.891 5.86914C172.995 5.76497 172.891 5.76497 173.099 5.76497C171.635 5.54622 172.161 6.41081 170.49 6.08789C169.656 5.76497 171.427 5.86914 170.802 5.76497C170.594 5.11914 168.719 5.86914 167.672 5.44206H167.984C167.151 5.22331 165.901 5.6556 164.438 5.6556C164.438 5.6556 164.542 5.54622 164.438 5.54622C163.5 5.86914 161.625 5.97852 160.266 6.08789C160.682 5.86914 160.891 5.97852 160.578 5.6556C159.953 5.6556 160.786 6.08789 159.536 6.19727C159.12 6.08789 158.286 5.86914 158.182 5.54622H159.328C158.703 5.11914 157.865 5.54622 157.24 5.44206L157.344 5.22331C155.573 5.22331 155.573 5.6556 153.693 5.6556L153.901 5.76497C152.859 6.19727 153.068 5.54622 152.026 5.86914L151.714 5.44206C150.979 5.54622 149.313 5.86914 148.063 5.86914C148.792 5.54622 150.146 5.44206 151.083 5.22331C150.458 5.22331 148.792 5.22331 148.479 5.44206C148.792 5.44206 149.104 5.33268 149.417 5.33268C148.583 5.6556 147.536 5.76497 146.182 5.76497C146.391 4.90039 142.635 5.54622 141.698 4.90039C139.297 5.22331 137 4.68685 134.188 4.68685C135.125 5.33268 133.349 4.68685 133.557 5.33268C132.932 5.33268 132.62 5.33268 132.62 5.33268L130.641 4.90039C130.219 4.68685 131.266 4.79622 131.161 4.57747C129.698 4.47331 130.531 4.25456 129.594 4.15039C129.802 4.36393 129.073 4.47331 128.24 4.36393L129.385 4.68685C127.406 5.00977 127.719 4.15039 125.63 4.47331L126.255 4.25456C125.214 4.36393 122.5 4.25456 121.458 4.79622C121.25 4.68685 121.042 4.57747 121.458 4.47331C118.953 4.36393 116.031 5.00977 114.052 4.68685L114.26 4.57747C113.844 4.57747 113.427 4.90039 112.901 4.68685C112.901 4.57747 113.109 4.57747 112.901 4.47331C112.693 4.57747 111.651 4.79622 111.13 4.68685L111.651 4.47331C109.25 4.25456 108 4.90039 106.016 5.00977C106.016 4.57748 104.141 4.36393 103.203 4.25456V4.15039C100.385 4.04102 98.5052 4.57747 95.8959 4.68685C94.3334 4.15039 90.474 4.57747 87.8646 4.25456C88.2813 4.36393 87.7605 4.57747 87.3438 4.68685C86.7188 4.57747 85.6719 5.00976 85.7761 4.57747H85.9896C85.5677 4.15039 84.3177 4.25456 83.2761 4.25456L82.7552 5.44206C80.25 4.68685 76.0782 5.86914 74.7188 5.11914C74.0938 5.22331 73.3646 5.33268 72.7396 5.44206V5.11914C71.0677 5.11914 70.2344 5.11914 68.1459 5.22331L68.5625 5.00977C67.4167 5.00977 67.1042 5.97852 66.0625 5.97852L65.75 5.54622C63.6615 5.6556 61.573 5.33268 59.5938 5.76497C59.5938 5.6556 59.698 5.54622 60.0105 5.54622C59.073 5.54622 56.2552 5.44206 56.6719 5.97852C56.6719 5.54622 54.5834 6.08789 53.4375 6.30143L53.6459 5.97852C52.7084 6.41081 52.7084 6.52018 51.349 6.73372C51.0365 6.73372 51.0365 6.52018 51.4532 6.52018C50.4115 6.41081 50.6198 6.8431 49.3698 6.73372L49.7865 6.52018C48.7448 6.52018 48.849 6.62435 48.224 6.94727C47.5938 7.05664 46.2396 6.94727 46.0313 6.73372C45.9271 6.94727 45.3021 7.16602 44.6719 7.16602C44.5677 7.05664 44.7813 6.94727 44.8855 6.94727C43.1094 6.8431 42.2761 7.48893 41.0209 7.16602C41.0209 7.05664 40.9167 7.05664 40.8125 6.94727C42.2761 6.8431 43.4219 6.8431 43.2136 6.8431C43.2136 6.52018 42.0677 6.62435 42.9011 6.19727C41.9636 6.41081 40.5 6.94727 39.3542 6.94727C39.25 6.94727 39.25 6.94727 39.25 6.8431H39.3542C39.1459 6.8431 38.8334 6.8431 38.625 6.94727C38.3125 6.94727 38 6.94727 37.6823 6.94727C37.5782 6.73372 36.3282 6.94727 35.8073 6.94727C35.9115 7.27018 35.0782 7.27018 35.8073 7.48893C35.7032 7.48893 35.9115 7.48893 36.3282 7.37956C36.4323 7.37956 36.5365 7.37956 36.5365 7.37956C36.9532 7.37956 37.3698 7.27018 38 7.27018C37.5782 7.37956 37.0573 7.5931 36.4323 7.48893C36.1198 7.70247 35.8073 7.91602 35.7032 8.02539C34.8698 7.70248 33.4063 7.5931 33.198 7.27018C31.4271 7.5931 29.1302 7.70247 28.0886 8.34831C27.5677 8.45768 27.4584 8.23893 27.3542 8.13477C27.6719 8.02539 27.9844 8.02539 28.0886 7.91602C27.1459 8.13477 25.1667 8.23893 24.9584 8.56185C23.7032 8.45768 25.5834 8.13476 23.9115 8.34831L24.1198 8.23893C20.6771 7.81185 18.8021 9.74935 14.9427 9.31706C15.2552 9.31706 15.3594 9.31706 15.3594 9.42643C11.0834 9.53581 6.69796 10.7181 2.42191 10.6087C1.27608 10.7181 1.17191 10.9316 0.442747 11.2546L0.130247 10.9316L-1.02079 11.4733C-2.68746 12.0098 -4.151 11.1504 -6.3385 11.9056L-6.026 12.1191C-6.86454 12.2285 -8.53121 12.6556 -8.42704 12.3327C-8.53121 12.3327 -8.63538 12.5514 -8.94788 12.5514V12.3327L-10.8281 12.8743C-12.3906 12.9785 -10.7239 12.1191 -12.9114 12.4421C-13.75 12.6556 -15.2083 13.3014 -14.8958 13.3014C-14.5833 13.3014 -14.0625 13.3014 -13.9583 13.4108L-14.6875 13.6243C-14.7916 14.166 -15.2083 14.7025 -13.3281 14.8118L-12.0781 14.2702L-11.6614 14.4889L-12.7031 14.7025C-12.0781 14.8118 -11.6614 14.5983 -11.2448 14.3796C-11.1406 14.4889 -10.9323 14.5983 -10.6198 14.5983L-9.46871 13.9473C-9.26038 14.166 -9.98955 14.3796 -9.15621 14.3796C-8.63538 14.0566 -9.78121 14.0566 -8.84371 13.7337C-8.21871 13.8431 -8.32288 14.0566 -7.69788 13.7337C-7.59371 13.8431 -7.69788 13.9473 -8.01038 14.0566C-7.59371 14.0566 -6.44267 14.0566 -6.23434 13.7337C-5.60934 13.9473 -4.04684 13.3014 -4.04684 13.8431C-3.8385 13.7337 -2.99996 13.3014 -2.37496 13.1973C-3.42184 13.9473 -0.187462 12.8743 -0.395795 13.5202C0.33858 12.8743 2.42191 12.8743 3.88545 12.4421C3.78129 12.4421 3.67712 12.5514 3.57296 12.5514C4.40629 12.5514 4.61462 12.6556 5.13545 12.6556C5.23962 12.2285 6.38545 12.0098 7.01566 11.6868C8.05733 12.0098 6.48962 12.2285 6.80212 12.5514C6.69796 12.2285 8.474 12.0098 8.05733 11.7962C8.7865 12.0098 8.68233 11.7962 9.099 12.1191C9.20316 11.5827 9.82816 11.9056 10.349 11.5827C11.5 11.6868 10.6667 12.0098 11.8125 11.7962C12.5417 11.9056 11.5 12.2285 11.5 12.2285ZM42.1719 8.67122C41.8594 8.67122 41.5469 8.67122 41.125 8.67122C41.0209 8.56185 41.125 8.45768 41.3386 8.45768C41.2292 8.56185 41.8594 8.56185 42.1719 8.67122ZM37.0573 6.94727C37.474 6.8431 37.5782 6.94727 37.5782 6.94727C37.3698 6.94727 37.1615 6.94727 36.9532 7.05664C36.9532 7.05664 36.9532 6.94727 37.0573 6.94727Z" fill="#F7E4AD"></path></g></svg> 