<?xml version="1.0" encoding="UTF-8"?> <svg xmlns="http://www.w3.org/2000/svg" width="47" height="47" viewBox="0 0 47 47" fill="none"><path d="M20.8321 0.0658222C16.5544 0.579885 12.6989 2.13125 9.21063 4.74746C7.98973 5.65625 5.63055 8.02461 4.69422 9.28223C2.09637 12.7797 0.517466 16.8096 0.076841 21.0598C-0.0792137 22.6111 0.0125832 25.8883 0.260435 27.2744C0.958091 31.2125 2.37176 34.5172 4.69422 37.6475C5.63055 38.9051 7.98973 41.2734 9.21063 42.1822C13.5067 45.3951 18.1884 46.9648 23.4942 46.9648C28.8001 46.9648 33.4725 45.4043 37.7778 42.1822C38.9987 41.2734 41.3579 38.9051 42.2942 37.6475C44.6075 34.5264 46.0304 31.2033 46.728 27.2744C46.9759 25.8791 47.0677 22.602 46.9116 21.0598C46.4526 16.6719 44.9104 12.798 42.1841 9.14453C41.3487 8.01543 38.9345 5.61035 37.7962 4.75664C34.5833 2.35156 31.3153 0.947072 27.3497 0.240236C26.4042 0.0658222 25.7891 0.0291035 23.8614 0.00156441C22.5763 -0.00761528 21.2085 0.0199238 20.8321 0.0658222ZM26.3399 1.2959C36.0979 2.54434 43.8915 10.09 45.5714 19.9031C45.9294 22.0145 45.9294 24.9152 45.5714 27.0266C44.5065 33.2596 41.0182 38.6205 35.7491 42.1455C34.6384 42.8891 32.2425 44.0824 30.9389 44.5414C25.0731 46.5977 18.7667 46.1662 13.2589 43.3021C6.94325 40.0342 2.62879 34.0949 1.41708 27.0266C1.05907 24.8969 1.05907 22.0787 1.42625 19.8848C2.60125 12.8623 7.03504 6.78535 13.3231 3.58164C17.4356 1.48867 21.8327 0.71758 26.3399 1.2959Z" fill="#253759"></path><path d="M32.8575 13.6788C32.3893 13.8165 13.2955 21.3072 12.9192 21.4999C12.6162 21.656 12.2491 22.1333 12.1664 22.4822C12.1297 22.6198 12.1481 22.8952 12.2032 23.088C12.3776 23.7398 12.6713 23.8958 15.5354 24.8781C16.9858 25.3738 18.2526 25.7593 18.3444 25.7318C18.4362 25.7134 20.4465 24.465 22.8149 22.9595C25.1832 21.454 27.2211 20.1597 27.3496 20.0863L27.5791 19.9486L27.3496 20.1781C27.2211 20.3066 25.5963 21.7845 23.7237 23.4644C21.8602 25.1443 20.3272 26.5488 20.3272 26.5947C20.3272 26.714 25.6422 30.8999 27.5608 32.3044C28.7909 33.204 29.36 33.4427 30.0577 33.3417C30.5717 33.2591 31.2327 32.7175 31.3795 32.2493C31.4346 32.0841 32.2424 28.0726 33.1879 23.3267C35.0514 13.9175 34.9963 14.3214 34.4639 13.8257C34.1793 13.5595 33.4725 13.4952 32.8575 13.6788ZM33.6377 14.9456C33.6102 15.065 32.8483 18.9113 31.9395 23.5103C30.5075 30.7531 30.2596 31.8822 30.0944 32.0198C29.8649 32.2126 29.7088 32.2218 29.4334 32.0749C29.2774 32.0015 22.5119 26.87 22.1815 26.5855C22.1448 26.5488 24.1459 24.6945 26.6336 22.4638C29.1213 20.2331 31.2694 18.2595 31.4162 18.0759C32.0496 17.2406 31.4071 16.3868 30.4248 16.7632C30.2871 16.8183 27.469 18.5808 24.1551 20.6829L18.1332 24.5109L15.8475 23.7306C13.4332 22.9136 13.1946 22.8126 13.3598 22.6382C13.5067 22.4913 33.2246 14.7529 33.4817 14.7529C33.6469 14.7437 33.6744 14.7804 33.6377 14.9456Z" fill="#253759"></path></svg> 